<svg xmlns="http://www.w3.org/2000/svg" version="1.1" xmlns:xlink="http://www.w3.org/1999/xlink" width="512" height="512"><svg width="512" height="512" viewBox="0 0 512 512" fill="none" xmlns="http://www.w3.org/2000/svg">
  <!-- 背景圆形 -->
  <circle cx="256" cy="256" r="240" fill="#F26522" opacity="0.9"></circle>
  
  <!-- 外环 -->
  <path d="M371 141C371 137.134 367.866 134 364 134H148C144.134 134 141 137.134 141 141V371C141 374.866 144.134 378 148 378H364C367.866 378 371 374.866 371 371V141Z" stroke="white" stroke-width="16" stroke-linecap="round"></path>
  
  <!-- RSS圆环 -->
  <circle cx="194" cy="318" r="28" fill="white"></circle>
  
  <!-- 中等弧 -->
  <path d="M194 256C230.944 256 261 286.056 261 323" stroke="white" stroke-width="24" stroke-linecap="round"></path>
  
  <!-- 大弧 -->
  <path d="M194 194C265.007 194 323 251.993 323 323" stroke="white" stroke-width="24" stroke-linecap="round"></path>
  
  <!-- 飞翔元素 - 右上角的翅膀 -->
  <path d="M320 180C360 150 380 170 390 180" stroke="white" stroke-width="12" stroke-linecap="round"></path>
  <path d="M335 155C375 125 395 145 405 155" stroke="white" stroke-width="8" stroke-linecap="round"></path>
</svg><style>@media (prefers-color-scheme: light) { :root { filter: none; } }
@media (prefers-color-scheme: dark) { :root { filter: none; } }
</style></svg>